<?xml version="1.0" encoding="UTF-8" standalone="no"?>
<svg xmlns="http://www.w3.org/2000/svg" width="560" height="320" viewBox="0 0 560 320" font-family="Arial,Helvetica,sans-serif" font-size="12">
<rect x="0" y="0" width="560" height="320" fill="white" stroke="none" stroke-width="0"/>
<g class="fs-axes" data-area="50.2 550 16 268" data-x="0 6.5e2" data-y="-6e0 0" data-log="0 0" data-grid="0" data-font-size="12">
<g class="fs-grid" display="none">
<polyline fill="none" stroke="#a0a0a0" stroke-width="0.5" stroke-dasharray="2,3" points="50.2,268 50.2,16"/>
<polyline fill="none" stroke="#a0a0a0" stroke-width="0.5" stroke-dasharray="2,3" points="88.65,268 88.65,16"/>
<polyline fill="none" stroke="#a0a0a0" stroke-width="0.5" stroke-dasharray="2,3" points="127.09,268 127.09,16"/>
<polyline fill="none" stroke="#a0a0a0" stroke-width="0.5" stroke-dasharray="2,3" points="165.54,268 165.54,16"/>
<polyline fill="none" stroke="#a0a0a0" stroke-width="0.5" stroke-dasharray="2,3" points="203.98,268 203.98,16"/>
<polyline fill="none" stroke="#a0a0a0" stroke-width="0.5" stroke-dasharray="2,3" points="242.43,268 242.43,16"/>
<polyline fill="none" stroke="#a0a0a0" stroke-width="0.5" stroke-dasharray="2,3" points="280.88,268 280.88,16"/>
<polyline fill="none" stroke="#a0a0a0" stroke-width="0.5" stroke-dasharray="2,3" points="319.32,268 319.32,16"/>
<polyline fill="none" stroke="#a0a0a0" stroke-width="0.5" stroke-dasharray="2,3" points="357.77,268 357.77,16"/>
<polyline fill="none" stroke="#a0a0a0" stroke-width="0.5" stroke-dasharray="2,3" points="396.22,268 396.22,16"/>
<polyline fill="none" stroke="#a0a0a0" stroke-width="0.5" stroke-dasharray="2,3" points="434.66,268 434.66,16"/>
<polyline fill="none" stroke="#a0a0a0" stroke-width="0.5" stroke-dasharray="2,3" points="473.11,268 473.11,16"/>
<polyline fill="none" stroke="#a0a0a0" stroke-width="0.5" stroke-dasharray="2,3" points="511.55,268 511.55,16"/>
<polyline fill="none" stroke="#a0a0a0" stroke-width="0.5" stroke-dasharray="2,3" points="550,268 550,16"/>
<polyline fill="none" stroke="#a0a0a0" stroke-width="0.5" stroke-dasharray="2,3" points="50.2,268 550,268"/>
<polyline fill="none" stroke="#a0a0a0" stroke-width="0.5" stroke-dasharray="2,3" points="50.2,226 550,226"/>
<polyline fill="none" stroke="#a0a0a0" stroke-width="0.5" stroke-dasharray="2,3" points="50.2,184 550,184"/>
<polyline fill="none" stroke="#a0a0a0" stroke-width="0.5" stroke-dasharray="2,3" points="50.2,142 550,142"/>
<polyline fill="none" stroke="#a0a0a0" stroke-width="0.5" stroke-dasharray="2,3" points="50.2,100 550,100"/>
<polyline fill="none" stroke="#a0a0a0" stroke-width="0.5" stroke-dasharray="2,3" points="50.2,58 550,58"/>
<polyline fill="none" stroke="#a0a0a0" stroke-width="0.5" stroke-dasharray="2,3" points="50.2,16 550,16"/>
</g>
<svg class="fs-plot" x="50.2" y="16" width="499.8" height="252" viewBox="0 0 1 1" preserveAspectRatio="none" overflow="hidden">
<g class="fs-series" data-series="1">
<path fill="#9400d3" stroke="#9400d3" stroke-width="1" stroke-linejoin="miter" vector-effect="non-scaling-stroke" d="M0.061538,0.176167 0.092308,0.176167 0.092308,0.234667 0.061538,0.234667Z"/>
<polyline fill="none" stroke="#9400d3" stroke-width="1" stroke-linejoin="round" vector-effect="non-scaling-stroke" points="0.076923,0.234667 0.076923,0.268"/>
<polyline fill="none" stroke="#9400d3" stroke-width="1" stroke-linejoin="round" vector-effect="non-scaling-stroke" points="0.076923,0.176167 0.076923,0.1495"/>
<polyline fill="none" stroke="#9400d3" stroke-width="1" stroke-linejoin="round" vector-effect="non-scaling-stroke" points="0.069231,0.268 0.084615,0.268"/>
<polyline fill="none" stroke="#9400d3" stroke-width="1" stroke-linejoin="round" vector-effect="non-scaling-stroke" points="0.069231,0.1495 0.084615,0.1495"/>
<path fill="#9400d3" stroke="#9400d3" stroke-width="1" stroke-linejoin="miter" vector-effect="non-scaling-stroke" d="M0.138462,0.247833 0.169231,0.247833 0.169231,0.307167 0.138462,0.307167Z"/>
<polyline fill="none" stroke="#9400d3" stroke-width="1" stroke-linejoin="round" vector-effect="non-scaling-stroke" points="0.153846,0.307167 0.153846,0.348833"/>
<polyline fill="none" stroke="#9400d3" stroke-width="1" stroke-linejoin="round" vector-effect="non-scaling-stroke" points="0.153846,0.247833 0.153846,0.2145"/>
<polyline fill="none" stroke="#9400d3" stroke-width="1" stroke-linejoin="round" vector-effect="non-scaling-stroke" points="0.146154,0.348833 0.161538,0.348833"/>
<polyline fill="none" stroke="#9400d3" stroke-width="1" stroke-linejoin="round" vector-effect="non-scaling-stroke" points="0.146154,0.2145 0.161538,0.2145"/>
<path fill="#9400d3" stroke="#9400d3" stroke-width="1" stroke-linejoin="miter" vector-effect="non-scaling-stroke" d="M0.215385,0.342333 0.246154,0.342333 0.246154,0.376667 0.215385,0.376667Z"/>
<polyline fill="none" stroke="#9400d3" stroke-width="1" stroke-linejoin="round" vector-effect="non-scaling-stroke" points="0.230769,0.376667 0.230769,0.401667"/>
<polyline fill="none" stroke="#9400d3" stroke-width="1" stroke-linejoin="round" vector-effect="non-scaling-stroke" points="0.230769,0.342333 0.230769,0.302333"/>
<polyline fill="none" stroke="#9400d3" stroke-width="1" stroke-linejoin="round" vector-effect="non-scaling-stroke" points="0.223077,0.401667 0.238462,0.401667"/>
<polyline fill="none" stroke="#9400d3" stroke-width="1" stroke-linejoin="round" vector-effect="non-scaling-stroke" points="0.223077,0.302333 0.238462,0.302333"/>
<path fill="#9400d3" stroke="#9400d3" stroke-width="1" stroke-linejoin="miter" vector-effect="non-scaling-stroke" d="M0.292308,0.4065 0.323077,0.4065 0.323077,0.435 0.292308,0.435Z"/>
<polyline fill="none" stroke="#9400d3" stroke-width="1" stroke-linejoin="round" vector-effect="non-scaling-stroke" points="0.307692,0.435 0.307692,0.468333"/>
<polyline fill="none" stroke="#9400d3" stroke-width="1" stroke-linejoin="round" vector-effect="non-scaling-stroke" points="0.307692,0.4065 0.307692,0.3865"/>
<polyline fill="none" stroke="#9400d3" stroke-width="1" stroke-linejoin="round" vector-effect="non-scaling-stroke" points="0.3,0.468333 0.315385,0.468333"/>
<polyline fill="none" stroke="#9400d3" stroke-width="1" stroke-linejoin="round" vector-effect="non-scaling-stroke" points="0.3,0.3865 0.315385,0.3865"/>
<path fill="#9400d3" stroke="#9400d3" stroke-width="1" stroke-linejoin="miter" vector-effect="non-scaling-stroke" d="M0.369231,0.431833 0.4,0.431833 0.4,0.481833 0.369231,0.481833Z"/>
<polyline fill="none" stroke="#9400d3" stroke-width="1" stroke-linejoin="round" vector-effect="non-scaling-stroke" points="0.384615,0.481833 0.384615,0.5235"/>
<polyline fill="none" stroke="#9400d3" stroke-width="1" stroke-linejoin="round" vector-effect="non-scaling-stroke" points="0.384615,0.431833 0.384615,0.405167"/>
<polyline fill="none" stroke="#9400d3" stroke-width="1" stroke-linejoin="round" vector-effect="non-scaling-stroke" points="0.376923,0.5235 0.392308,0.5235"/>
<polyline fill="none" stroke="#9400d3" stroke-width="1" stroke-linejoin="round" vector-effect="non-scaling-stroke" points="0.376923,0.405167 0.392308,0.405167"/>
<path fill="#9400d3" stroke="#9400d3" stroke-width="1" stroke-linejoin="miter" vector-effect="non-scaling-stroke" d="M0.446154,0.466667 0.476923,0.466667 0.476923,0.526167 0.446154,0.526167Z"/>
<polyline fill="none" stroke="#9400d3" stroke-width="1" stroke-linejoin="round" vector-effect="non-scaling-stroke" points="0.461538,0.526167 0.461538,0.551167"/>
<polyline fill="none" stroke="#9400d3" stroke-width="1" stroke-linejoin="round" vector-effect="non-scaling-stroke" points="0.461538,0.466667 0.461538,0.433333"/>
<polyline fill="none" stroke="#9400d3" stroke-width="1" stroke-linejoin="round" vector-effect="non-scaling-stroke" points="0.453846,0.551167 0.469231,0.551167"/>
<polyline fill="none" stroke="#9400d3" stroke-width="1" stroke-linejoin="round" vector-effect="non-scaling-stroke" points="0.453846,0.433333 0.469231,0.433333"/>
<path fill="#9400d3" stroke="#9400d3" stroke-width="1" stroke-linejoin="miter" vector-effect="non-scaling-stroke" d="M0.523077,0.5455 0.553846,0.5455 0.553846,0.578333 0.523077,0.578333Z"/>
<polyline fill="none" stroke="#9400d3" stroke-width="1" stroke-linejoin="round" vector-effect="non-scaling-stroke" points="0.538462,0.578333 0.538462,0.611667"/>
<polyline fill="none" stroke="#9400d3" stroke-width="1" stroke-linejoin="round" vector-effect="non-scaling-stroke" points="0.538462,0.5455 0.538462,0.5055"/>
<polyline fill="none" stroke="#9400d3" stroke-width="1" stroke-linejoin="round" vector-effect="non-scaling-stroke" points="0.530769,0.611667 0.546154,0.611667"/>
<polyline fill="none" stroke="#9400d3" stroke-width="1" stroke-linejoin="round" vector-effect="non-scaling-stroke" points="0.530769,0.5055 0.546154,0.5055"/>
<path fill="#9400d3" stroke="#9400d3" stroke-width="1" stroke-linejoin="miter" vector-effect="non-scaling-stroke" d="M0.6,0.638167 0.630769,0.638167 0.630769,0.643167 0.6,0.643167Z"/>
<polyline fill="none" stroke="#9400d3" stroke-width="1" stroke-linejoin="round" vector-effect="non-scaling-stroke" points="0.615385,0.643167 0.615385,0.684833"/>
<polyline fill="none" stroke="#9400d3" stroke-width="1" stroke-linejoin="round" vector-effect="non-scaling-stroke" points="0.615385,0.638167 0.615385,0.618167"/>
<polyline fill="none" stroke="#9400d3" stroke-width="1" stroke-linejoin="round" vector-effect="non-scaling-stroke" points="0.607692,0.684833 0.623077,0.684833"/>
<polyline fill="none" stroke="#9400d3" stroke-width="1" stroke-linejoin="round" vector-effect="non-scaling-stroke" points="0.607692,0.618167 0.623077,0.618167"/>
<path fill="#9400d3" stroke="#9400d3" stroke-width="1" stroke-linejoin="miter" vector-effect="non-scaling-stroke" d="M0.676923,0.6945 0.707692,0.6945 0.707692,0.715667 0.676923,0.715667Z"/>
<polyline fill="none" stroke="#9400d3" stroke-width="1" stroke-linejoin="round" vector-effect="non-scaling-stroke" points="0.692308,0.715667 0.692308,0.740667"/>
<polyline fill="none" stroke="#9400d3" stroke-width="1" stroke-linejoin="round" vector-effect="non-scaling-stroke" points="0.692308,0.6945 0.692308,0.667833"/>
<polyline fill="none" stroke="#9400d3" stroke-width="1" stroke-linejoin="round" vector-effect="non-scaling-stroke" points="0.684615,0.740667 0.7,0.740667"/>
<polyline fill="none" stroke="#9400d3" stroke-width="1" stroke-linejoin="round" vector-effect="non-scaling-stroke" points="0.684615,0.667833 0.7,0.667833"/>
<path fill="#9400d3" stroke="#9400d3" stroke-width="1" stroke-linejoin="miter" vector-effect="non-scaling-stroke" d="M0.753846,0.717333 0.784615,0.717333 0.784615,0.785167 0.753846,0.785167Z"/>
<polyline fill="none" stroke="#9400d3" stroke-width="1" stroke-linejoin="round" vector-effect="non-scaling-stroke" points="0.769231,0.785167 0.769231,0.8185"/>
<polyline fill="none" stroke="#9400d3" stroke-width="1" stroke-linejoin="round" vector-effect="non-scaling-stroke" points="0.769231,0.717333 0.769231,0.684"/>
<polyline fill="none" stroke="#9400d3" stroke-width="1" stroke-linejoin="round" vector-effect="non-scaling-stroke" points="0.761538,0.8185 0.776923,0.8185"/>
<polyline fill="none" stroke="#9400d3" stroke-width="1" stroke-linejoin="round" vector-effect="non-scaling-stroke" points="0.761538,0.684 0.776923,0.684"/>
<path fill="#9400d3" stroke="#9400d3" stroke-width="1" stroke-linejoin="miter" vector-effect="non-scaling-stroke" d="M0.830769,0.758667 0.861538,0.758667 0.861538,0.843167 0.830769,0.843167Z"/>
<polyline fill="none" stroke="#9400d3" stroke-width="1" stroke-linejoin="round" vector-effect="non-scaling-stroke" points="0.846154,0.843167 0.846154,0.884833"/>
<polyline fill="none" stroke="#9400d3" stroke-width="1" stroke-linejoin="round" vector-effect="non-scaling-stroke" points="0.846154,0.758667 0.846154,0.718667"/>
<polyline fill="none" stroke="#9400d3" stroke-width="1" stroke-linejoin="round" vector-effect="non-scaling-stroke" points="0.838462,0.884833 0.853846,0.884833"/>
<polyline fill="none" stroke="#9400d3" stroke-width="1" stroke-linejoin="round" vector-effect="non-scaling-stroke" points="0.838462,0.718667 0.853846,0.718667"/>
<path fill="#9400d3" stroke="#9400d3" stroke-width="1" stroke-linejoin="miter" vector-effect="non-scaling-stroke" d="M0.907692,0.8435 0.938462,0.8435 0.938462,0.889833 0.907692,0.889833Z"/>
<polyline fill="none" stroke="#9400d3" stroke-width="1" stroke-linejoin="round" vector-effect="non-scaling-stroke" points="0.923077,0.889833 0.923077,0.914833"/>
<polyline fill="none" stroke="#9400d3" stroke-width="1" stroke-linejoin="round" vector-effect="non-scaling-stroke" points="0.923077,0.8435 0.923077,0.8235"/>
<polyline fill="none" stroke="#9400d3" stroke-width="1" stroke-linejoin="round" vector-effect="non-scaling-stroke" points="0.915385,0.914833 0.930769,0.914833"/>
<polyline fill="none" stroke="#9400d3" stroke-width="1" stroke-linejoin="round" vector-effect="non-scaling-stroke" points="0.915385,0.8235 0.930769,0.8235"/>
</g>
<g class="fs-series" data-series="2">
<polyline fill="none" stroke="#009e73" stroke-width="1" stroke-linejoin="round" vector-effect="non-scaling-stroke" points="0.107692,0.268 0.107692,0.1495"/>
<polyline fill="none" stroke="#009e73" stroke-width="1" stroke-linejoin="round" vector-effect="non-scaling-stroke" points="0.10169,0.176167 0.107692,0.176167"/>
<polyline fill="none" stroke="#009e73" stroke-width="1" stroke-linejoin="round" vector-effect="non-scaling-stroke" points="0.107692,0.234667 0.113695,0.234667"/>
<polyline fill="none" stroke="#009e73" stroke-width="1" stroke-linejoin="round" vector-effect="non-scaling-stroke" points="0.184615,0.348833 0.184615,0.2145"/>
<polyline fill="none" stroke="#009e73" stroke-width="1" stroke-linejoin="round" vector-effect="non-scaling-stroke" points="0.178613,0.247833 0.184615,0.247833"/>
<polyline fill="none" stroke="#009e73" stroke-width="1" stroke-linejoin="round" vector-effect="non-scaling-stroke" points="0.184615,0.307167 0.190618,0.307167"/>
<polyline fill="none" stroke="#009e73" stroke-width="1" stroke-linejoin="round" vector-effect="non-scaling-stroke" points="0.261538,0.401667 0.261538,0.302333"/>
<polyline fill="none" stroke="#009e73" stroke-width="1" stroke-linejoin="round" vector-effect="non-scaling-stroke" points="0.255536,0.342333 0.261538,0.342333"/>
<polyline fill="none" stroke="#009e73" stroke-width="1" stroke-linejoin="round" vector-effect="non-scaling-stroke" points="0.261538,0.376667 0.267541,0.376667"/>
<polyline fill="none" stroke="#009e73" stroke-width="1" stroke-linejoin="round" vector-effect="non-scaling-stroke" points="0.338462,0.468333 0.338462,0.3865"/>
<polyline fill="none" stroke="#009e73" stroke-width="1" stroke-linejoin="round" vector-effect="non-scaling-stroke" points="0.332459,0.4065 0.338462,0.4065"/>
<polyline fill="none" stroke="#009e73" stroke-width="1" stroke-linejoin="round" vector-effect="non-scaling-stroke" points="0.338462,0.435 0.344464,0.435"/>
<polyline fill="none" stroke="#009e73" stroke-width="1" stroke-linejoin="round" vector-effect="non-scaling-stroke" points="0.415385,0.5235 0.415385,0.405167"/>
<polyline fill="none" stroke="#009e73" stroke-width="1" stroke-linejoin="round" vector-effect="non-scaling-stroke" points="0.409382,0.431833 0.415385,0.431833"/>
<polyline fill="none" stroke="#009e73" stroke-width="1" stroke-linejoin="round" vector-effect="non-scaling-stroke" points="0.415385,0.481833 0.421387,0.481833"/>
<polyline fill="none" stroke="#009e73" stroke-width="1" stroke-linejoin="round" vector-effect="non-scaling-stroke" points="0.492308,0.551167 0.492308,0.433333"/>
<polyline fill="none" stroke="#009e73" stroke-width="1" stroke-linejoin="round" vector-effect="non-scaling-stroke" points="0.486305,0.466667 0.492308,0.466667"/>
<polyline fill="none" stroke="#009e73" stroke-width="1" stroke-linejoin="round" vector-effect="non-scaling-stroke" points="0.492308,0.526167 0.49831,0.526167"/>
<polyline fill="none" stroke="#009e73" stroke-width="1" stroke-linejoin="round" vector-effect="non-scaling-stroke" points="0.569231,0.611667 0.569231,0.5055"/>
<polyline fill="none" stroke="#009e73" stroke-width="1" stroke-linejoin="round" vector-effect="non-scaling-stroke" points="0.563228,0.5455 0.569231,0.5455"/>
<polyline fill="none" stroke="#009e73" stroke-width="1" stroke-linejoin="round" vector-effect="non-scaling-stroke" points="0.569231,0.578333 0.575233,0.578333"/>
<polyline fill="none" stroke="#009e73" stroke-width="1" stroke-linejoin="round" vector-effect="non-scaling-stroke" points="0.646154,0.684833 0.646154,0.618167"/>
<polyline fill="none" stroke="#009e73" stroke-width="1" stroke-linejoin="round" vector-effect="non-scaling-stroke" points="0.640151,0.638167 0.646154,0.638167"/>
<polyline fill="none" stroke="#009e73" stroke-width="1" stroke-linejoin="round" vector-effect="non-scaling-stroke" points="0.646154,0.643167 0.652156,0.643167"/>
<polyline fill="none" stroke="#009e73" stroke-width="1" stroke-linejoin="round" vector-effect="non-scaling-stroke" points="0.723077,0.740667 0.723077,0.667833"/>
<polyline fill="none" stroke="#009e73" stroke-width="1" stroke-linejoin="round" vector-effect="non-scaling-stroke" points="0.717075,0.6945 0.723077,0.6945"/>
<polyline fill="none" stroke="#009e73" stroke-width="1" stroke-linejoin="round" vector-effect="non-scaling-stroke" points="0.723077,0.715667 0.729079,0.715667"/>
<polyline fill="none" stroke="#009e73" stroke-width="1" stroke-linejoin="round" vector-effect="non-scaling-stroke" points="0.8,0.8185 0.8,0.684"/>
<polyline fill="none" stroke="#009e73" stroke-width="1" stroke-linejoin="round" vector-effect="non-scaling-stroke" points="0.793998,0.717333 0.8,0.717333"/>
<polyline fill="none" stroke="#009e73" stroke-width="1" stroke-linejoin="round" vector-effect="non-scaling-stroke" points="0.8,0.785167 0.806002,0.785167"/>
<polyline fill="none" stroke="#009e73" stroke-width="1" stroke-linejoin="round" vector-effect="non-scaling-stroke" points="0.876923,0.884833 0.876923,0.718667"/>
<polyline fill="none" stroke="#009e73" stroke-width="1" stroke-linejoin="round" vector-effect="non-scaling-stroke" points="0.870921,0.758667 0.876923,0.758667"/>
<polyline fill="none" stroke="#009e73" stroke-width="1" stroke-linejoin="round" vector-effect="non-scaling-stroke" points="0.876923,0.843167 0.882925,0.843167"/>
<polyline fill="none" stroke="#009e73" stroke-width="1" stroke-linejoin="round" vector-effect="non-scaling-stroke" points="0.953846,0.914833 0.953846,0.8235"/>
<polyline fill="none" stroke="#009e73" stroke-width="1" stroke-linejoin="round" vector-effect="non-scaling-stroke" points="0.947844,0.8435 0.953846,0.8435"/>
<polyline fill="none" stroke="#009e73" stroke-width="1" stroke-linejoin="round" vector-effect="non-scaling-stroke" points="0.953846,0.889833 0.959849,0.889833"/>
</g>
</svg>
<rect x="50.2" y="16" width="499.8" height="252" fill="none" stroke="black" stroke-width="1"/>
<g class="fs-xticks">
<polyline fill="none" stroke="black" stroke-width="1" points="50.2,268 50.2,262"/>
<polyline fill="none" stroke="black" stroke-width="1" points="50.2,16 50.2,22"/>
<text x="50.2" y="286" text-anchor="middle">0</text>
<polyline fill="none" stroke="black" stroke-width="1" points="88.65,268 88.65,262"/>
<polyline fill="none" stroke="black" stroke-width="1" points="88.65,16 88.65,22"/>
<text x="88.65" y="286" text-anchor="middle">50</text>
<polyline fill="none" stroke="black" stroke-width="1" points="127.09,268 127.09,262"/>
<polyline fill="none" stroke="black" stroke-width="1" points="127.09,16 127.09,22"/>
<text x="127.09" y="286" text-anchor="middle">100</text>
<polyline fill="none" stroke="black" stroke-width="1" points="165.54,268 165.54,262"/>
<polyline fill="none" stroke="black" stroke-width="1" points="165.54,16 165.54,22"/>
<text x="165.54" y="286" text-anchor="middle">150</text>
<polyline fill="none" stroke="black" stroke-width="1" points="203.98,268 203.98,262"/>
<polyline fill="none" stroke="black" stroke-width="1" points="203.98,16 203.98,22"/>
<text x="203.98" y="286" text-anchor="middle">200</text>
<polyline fill="none" stroke="black" stroke-width="1" points="242.43,268 242.43,262"/>
<polyline fill="none" stroke="black" stroke-width="1" points="242.43,16 242.43,22"/>
<text x="242.43" y="286" text-anchor="middle">250</text>
<polyline fill="none" stroke="black" stroke-width="1" points="280.88,268 280.88,262"/>
<polyline fill="none" stroke="black" stroke-width="1" points="280.88,16 280.88,22"/>
<text x="280.88" y="286" text-anchor="middle">300</text>
<polyline fill="none" stroke="black" stroke-width="1" points="319.32,268 319.32,262"/>
<polyline fill="none" stroke="black" stroke-width="1" points="319.32,16 319.32,22"/>
<text x="319.32" y="286" text-anchor="middle">350</text>
<polyline fill="none" stroke="black" stroke-width="1" points="357.77,268 357.77,262"/>
<polyline fill="none" stroke="black" stroke-width="1" points="357.77,16 357.77,22"/>
<text x="357.77" y="286" text-anchor="middle">400</text>
<polyline fill="none" stroke="black" stroke-width="1" points="396.22,268 396.22,262"/>
<polyline fill="none" stroke="black" stroke-width="1" points="396.22,16 396.22,22"/>
<text x="396.22" y="286" text-anchor="middle">450</text>
<polyline fill="none" stroke="black" stroke-width="1" points="434.66,268 434.66,262"/>
<polyline fill="none" stroke="black" stroke-width="1" points="434.66,16 434.66,22"/>
<text x="434.66" y="286" text-anchor="middle">500</text>
<polyline fill="none" stroke="black" stroke-width="1" points="473.11,268 473.11,262"/>
<polyline fill="none" stroke="black" stroke-width="1" points="473.11,16 473.11,22"/>
<text x="473.11" y="286" text-anchor="middle">550</text>
<polyline fill="none" stroke="black" stroke-width="1" points="511.55,268 511.55,262"/>
<polyline fill="none" stroke="black" stroke-width="1" points="511.55,16 511.55,22"/>
<text x="511.55" y="286" text-anchor="middle">600</text>
<polyline fill="none" stroke="black" stroke-width="1" points="550,268 550,262"/>
<polyline fill="none" stroke="black" stroke-width="1" points="550,16 550,22"/>
<text x="550" y="286" text-anchor="middle">650</text>
</g>
<g class="fs-yticks">
<polyline fill="none" stroke="black" stroke-width="1" points="50.2,268 56.2,268"/>
<polyline fill="none" stroke="black" stroke-width="1" points="550,268 544,268"/>
<text x="44.2" y="272.2" text-anchor="end">-6</text>
<polyline fill="none" stroke="black" stroke-width="1" points="50.2,226 56.2,226"/>
<polyline fill="none" stroke="black" stroke-width="1" points="550,226 544,226"/>
<text x="44.2" y="230.2" text-anchor="end">-5</text>
<polyline fill="none" stroke="black" stroke-width="1" points="50.2,184 56.2,184"/>
<polyline fill="none" stroke="black" stroke-width="1" points="550,184 544,184"/>
<text x="44.2" y="188.2" text-anchor="end">-4</text>
<polyline fill="none" stroke="black" stroke-width="1" points="50.2,142 56.2,142"/>
<polyline fill="none" stroke="black" stroke-width="1" points="550,142 544,142"/>
<text x="44.2" y="146.2" text-anchor="end">-3</text>
<polyline fill="none" stroke="black" stroke-width="1" points="50.2,100 56.2,100"/>
<polyline fill="none" stroke="black" stroke-width="1" points="550,100 544,100"/>
<text x="44.2" y="104.2" text-anchor="end">-2</text>
<polyline fill="none" stroke="black" stroke-width="1" points="50.2,58 56.2,58"/>
<polyline fill="none" stroke="black" stroke-width="1" points="550,58 544,58"/>
<text x="44.2" y="62.2" text-anchor="end">-1</text>
<polyline fill="none" stroke="black" stroke-width="1" points="50.2,16 56.2,16"/>
<polyline fill="none" stroke="black" stroke-width="1" points="550,16 544,16"/>
<text x="44.2" y="20.2" text-anchor="end">0</text>
</g>
<text x="300.1" y="307" text-anchor="middle">iteration</text>
<text x="22" y="142" text-anchor="middle" transform="rotate(-90 22 142)">log10 residual</text>
<g class="fs-key-entry" data-series="1">
<path fill="none" stroke="#9400d3" stroke-width="1" stroke-linejoin="miter" d="M504,33.7 540,33.7 540,25.3 504,25.3Z"/>
<text x="498" y="33.7" text-anchor="end">candlesticks</text>
</g>
<g class="fs-key-entry" data-series="2">
<polyline fill="none" stroke="#009e73" stroke-width="1" points="504,44.5 540,44.5"/>
<text x="498" y="48.7" text-anchor="end">financebars</text>
</g>
</g>
</svg>
