<?xml version="1.0" encoding="UTF-8" standalone="no"?>
<svg xmlns="http://www.w3.org/2000/svg" width="560" height="320" viewBox="0 0 560 320" font-family="Arial,Helvetica,sans-serif" font-size="12">
<rect x="0" y="0" width="560" height="320" fill="white" stroke="none" stroke-width="0"/>
<g class="fs-axes" data-area="39.1 550 16 289" data-x="0 1.2e2" data-y="1e-6 1e1" data-log="0 1" data-grid="0" data-font-size="12">
<g class="fs-grid" display="none">
<polyline fill="none" stroke="#a0a0a0" stroke-width="0.5" stroke-dasharray="2,3" points="39.1,289 39.1,16"/>
<polyline fill="none" stroke="#a0a0a0" stroke-width="0.5" stroke-dasharray="2,3" points="81.68,289 81.68,16"/>
<polyline fill="none" stroke="#a0a0a0" stroke-width="0.5" stroke-dasharray="2,3" points="124.25,289 124.25,16"/>
<polyline fill="none" stroke="#a0a0a0" stroke-width="0.5" stroke-dasharray="2,3" points="166.83,289 166.83,16"/>
<polyline fill="none" stroke="#a0a0a0" stroke-width="0.5" stroke-dasharray="2,3" points="209.4,289 209.4,16"/>
<polyline fill="none" stroke="#a0a0a0" stroke-width="0.5" stroke-dasharray="2,3" points="251.98,289 251.98,16"/>
<polyline fill="none" stroke="#a0a0a0" stroke-width="0.5" stroke-dasharray="2,3" points="294.55,289 294.55,16"/>
<polyline fill="none" stroke="#a0a0a0" stroke-width="0.5" stroke-dasharray="2,3" points="337.13,289 337.13,16"/>
<polyline fill="none" stroke="#a0a0a0" stroke-width="0.5" stroke-dasharray="2,3" points="379.7,289 379.7,16"/>
<polyline fill="none" stroke="#a0a0a0" stroke-width="0.5" stroke-dasharray="2,3" points="422.28,289 422.28,16"/>
<polyline fill="none" stroke="#a0a0a0" stroke-width="0.5" stroke-dasharray="2,3" points="464.85,289 464.85,16"/>
<polyline fill="none" stroke="#a0a0a0" stroke-width="0.5" stroke-dasharray="2,3" points="507.43,289 507.43,16"/>
<polyline fill="none" stroke="#a0a0a0" stroke-width="0.5" stroke-dasharray="2,3" points="550,289 550,16"/>
<polyline fill="none" stroke="#a0a0a0" stroke-width="0.5" stroke-dasharray="2,3" points="39.1,289 550,289"/>
<polyline fill="none" stroke="#a0a0a0" stroke-width="0.5" stroke-dasharray="2,3" points="39.1,250 550,250"/>
<polyline fill="none" stroke="#a0a0a0" stroke-width="0.5" stroke-dasharray="2,3" points="39.1,211 550,211"/>
<polyline fill="none" stroke="#a0a0a0" stroke-width="0.5" stroke-dasharray="2,3" points="39.1,172 550,172"/>
<polyline fill="none" stroke="#a0a0a0" stroke-width="0.5" stroke-dasharray="2,3" points="39.1,133 550,133"/>
<polyline fill="none" stroke="#a0a0a0" stroke-width="0.5" stroke-dasharray="2,3" points="39.1,94 550,94"/>
<polyline fill="none" stroke="#a0a0a0" stroke-width="0.5" stroke-dasharray="2,3" points="39.1,55 550,55"/>
<polyline fill="none" stroke="#a0a0a0" stroke-width="0.5" stroke-dasharray="2,3" points="39.1,16 550,16"/>
</g>
<svg class="fs-plot" x="39.1" y="16" width="510.9" height="273" viewBox="0 0 1 1" preserveAspectRatio="none" overflow="hidden">
<polyline fill="none" stroke="#9400d3" stroke-width="1" stroke-linejoin="round" vector-effect="non-scaling-stroke" points="0.008333,0.142559 0.016667,0.143559 0.025,0.146128 0.033333,0.150405 0.041667,0.156455 0.05,0.164286 0.058333,0.17386 0.066667,0.185075
0.075,0.197723 0.083333,0.211425 0.091667,0.22554 0.1,0.239092 0.108333,0.250828 0.116667,0.259549 0.125,0.264655 0.133333,0.266499
0.141667,0.266171 0.15,0.264956 0.158333,0.263921 0.166667,0.263793 0.175,0.265016 0.183333,0.267835 0.191667,0.272377 0.2,0.278695
0.208333,0.286792 0.216667,0.296622 0.225,0.308069 0.233333,0.320905 0.241667,0.334718 0.25,0.348819 0.258333,0.362182 0.266667,0.373533
0.275,0.381726 0.283333,0.386296 0.291667,0.387732 0.3,0.387191 0.308333,0.385943 0.316667,0.385006 0.325,0.385059 0.333333,0.38651
0.341667,0.389582 0.35,0.394389 0.358333,0.400976 0.366667,0.409338 0.375,0.41942 0.383333,0.431095 0.391667,0.44411 0.4,0.458018
0.408333,0.472082 0.416667,0.485226 0.425,0.496165 0.433333,0.50382 0.441667,0.507864 0.45,0.50892 0.458333,0.508195 0.466667,0.506938
0.475,0.506114 0.483333,0.506357 0.491667,0.50804 0.5,0.511369 0.508333,0.516442 0.516667,0.523297 0.525,0.531923 0.533333,0.542255
0.541667,0.554151 0.55,0.567335 0.558333,0.581322 0.566667,0.595324 0.575,0.608219 0.583333,0.618721 0.591667,0.62583 0.6,0.629364
0.608333,0.630068 0.616667,0.629188 0.625,0.627943 0.633333,0.627246 0.641667,0.627687 0.65,0.629608 0.658333,0.633195 0.666667,0.638535
0.675,0.645658 0.683333,0.654546 0.691667,0.665126 0.7,0.677237 0.708333,0.690579 0.716667,0.704628 0.725,0.718542 0.733333,0.731159
0.741667,0.741198 0.75,0.747757 0.758333,0.750799 0.766667,0.751181 0.775,0.750174 0.783333,0.748961 0.791667,0.748405 0.8,0.749051
0.808333,0.751214 0.816667,0.75506 0.825,0.760668 0.833333,0.768059 0.841667,0.777208 0.85,0.788031 0.858333,0.800351 0.866667,0.81384
0.875,0.82793 0.883333,0.84173 0.891667,0.854039 0.9,0.863595 0.908333,0.869602 0.916667,0.872173 0.925,0.872262 0.933333,0.871155
0.941667,0.869994 0.95,0.869591 0.958333,0.87045 0.966667,0.872858 0.975,0.876966 0.983333,0.882842 0.991667,0.8905 1,0.899908"/>
<polyline fill="none" stroke="#009e73" stroke-width="1" stroke-linejoin="round" vector-effect="non-scaling-stroke" points="0.008333,0.107143 0.016667,0.114286 0.025,0.121428 0.033333,0.128571 0.041667,0.135714 0.05,0.142857 0.058333,0.15 0.066667,0.157143
0.075,0.164286 0.083333,0.171429 0.091667,0.178571 0.1,0.185714 0.108333,0.192857 0.116667,0.2 0.125,0.207143 0.133333,0.214286
0.141667,0.221429 0.15,0.228571 0.158333,0.235714 0.166667,0.242857 0.175,0.25 0.183333,0.257143 0.191667,0.264286 0.2,0.271428
0.208333,0.278571 0.216667,0.285714 0.225,0.292857 0.233333,0.3 0.241667,0.307143 0.25,0.314286 0.258333,0.321429 0.266667,0.328571
0.275,0.335714 0.283333,0.342857 0.291667,0.35 0.3,0.357143 0.308333,0.364286 0.316667,0.371428 0.325,0.378571 0.333333,0.385714
0.341667,0.392857 0.35,0.4 0.358333,0.407143 0.366667,0.414285 0.375,0.421428 0.383333,0.428571 0.391667,0.435714 0.4,0.442857
0.408333,0.45 0.416667,0.457143 0.425,0.464286 0.433333,0.471429 0.441667,0.478571 0.45,0.485714 0.458333,0.492857 0.466667,0.5
0.475,0.507143 0.483333,0.514286 0.491667,0.521429 0.5,0.528572 0.508333,0.535714 0.516667,0.542857 0.525,0.55 0.533333,0.557143
0.541667,0.564286 0.55,0.571429 0.558333,0.578571 0.566667,0.585714 0.575,0.592857 0.583333,0.6 0.591667,0.607143 0.6,0.614286
0.608333,0.621429 0.616667,0.628571 0.625,0.635714 0.633333,0.642857 0.641667,0.65 0.65,0.657143 0.658333,0.664286 0.666667,0.671429
0.675,0.678571 0.683333,0.685714 0.691667,0.692857 0.7,0.7 0.708333,0.707143 0.716667,0.714286 0.725,0.721429 0.733333,0.728571
0.741667,0.735714 0.75,0.742857 0.758333,0.75 0.766667,0.757143 0.775,0.764286 0.783333,0.771429 0.791667,0.778571 0.8,0.785714
0.808333,0.792857 0.816667,0.8 0.825,0.807143 0.833333,0.814286 0.841667,0.821429 0.85,0.828572 0.858333,0.835714 0.866667,0.842857
0.875,0.85 0.883333,0.857143 0.891667,0.864286 0.9,0.871429 0.908333,0.878571 0.916667,0.885714 0.925,0.892857 0.933333,0.9
0.941667,0.907143 0.95,0.914286 0.958333,0.921429 0.966667,0.928571 0.975,0.935714 0.983333,0.942857 0.991667,0.95 1,0.957143"/>
</svg>
<rect x="39.1" y="16" width="510.9" height="273" fill="none" stroke="black" stroke-width="1"/>
<g class="fs-xticks">
<polyline fill="none" stroke="black" stroke-width="1" points="39.1,289 39.1,283"/>
<polyline fill="none" stroke="black" stroke-width="1" points="39.1,16 39.1,22"/>
<text x="39.1" y="307" text-anchor="middle">0</text>
<polyline fill="none" stroke="black" stroke-width="1" points="81.68,289 81.68,283"/>
<polyline fill="none" stroke="black" stroke-width="1" points="81.68,16 81.68,22"/>
<text x="81.68" y="307" text-anchor="middle">10</text>
<polyline fill="none" stroke="black" stroke-width="1" points="124.25,289 124.25,283"/>
<polyline fill="none" stroke="black" stroke-width="1" points="124.25,16 124.25,22"/>
<text x="124.25" y="307" text-anchor="middle">20</text>
<polyline fill="none" stroke="black" stroke-width="1" points="166.83,289 166.83,283"/>
<polyline fill="none" stroke="black" stroke-width="1" points="166.83,16 166.83,22"/>
<text x="166.83" y="307" text-anchor="middle">30</text>
<polyline fill="none" stroke="black" stroke-width="1" points="209.4,289 209.4,283"/>
<polyline fill="none" stroke="black" stroke-width="1" points="209.4,16 209.4,22"/>
<text x="209.4" y="307" text-anchor="middle">40</text>
<polyline fill="none" stroke="black" stroke-width="1" points="251.98,289 251.98,283"/>
<polyline fill="none" stroke="black" stroke-width="1" points="251.98,16 251.98,22"/>
<text x="251.98" y="307" text-anchor="middle">50</text>
<polyline fill="none" stroke="black" stroke-width="1" points="294.55,289 294.55,283"/>
<polyline fill="none" stroke="black" stroke-width="1" points="294.55,16 294.55,22"/>
<text x="294.55" y="307" text-anchor="middle">60</text>
<polyline fill="none" stroke="black" stroke-width="1" points="337.13,289 337.13,283"/>
<polyline fill="none" stroke="black" stroke-width="1" points="337.13,16 337.13,22"/>
<text x="337.13" y="307" text-anchor="middle">70</text>
<polyline fill="none" stroke="black" stroke-width="1" points="379.7,289 379.7,283"/>
<polyline fill="none" stroke="black" stroke-width="1" points="379.7,16 379.7,22"/>
<text x="379.7" y="307" text-anchor="middle">80</text>
<polyline fill="none" stroke="black" stroke-width="1" points="422.28,289 422.28,283"/>
<polyline fill="none" stroke="black" stroke-width="1" points="422.28,16 422.28,22"/>
<text x="422.28" y="307" text-anchor="middle">90</text>
<polyline fill="none" stroke="black" stroke-width="1" points="464.85,289 464.85,283"/>
<polyline fill="none" stroke="black" stroke-width="1" points="464.85,16 464.85,22"/>
<text x="464.85" y="307" text-anchor="middle">100</text>
<polyline fill="none" stroke="black" stroke-width="1" points="507.43,289 507.43,283"/>
<polyline fill="none" stroke="black" stroke-width="1" points="507.43,16 507.43,22"/>
<text x="507.43" y="307" text-anchor="middle">110</text>
<polyline fill="none" stroke="black" stroke-width="1" points="550,289 550,283"/>
<polyline fill="none" stroke="black" stroke-width="1" points="550,16 550,22"/>
<text x="550" y="307" text-anchor="middle">120</text>
</g>
<g class="fs-yticks">
<polyline fill="none" stroke="black" stroke-width="1" points="39.1,289 45.1,289"/>
<polyline fill="none" stroke="black" stroke-width="1" points="550,289 544,289"/>
<text x="33.1" y="293.2" text-anchor="end">10<tspan dy="-0.45em" font-size="0.75em">-6</tspan></text>
<polyline fill="none" stroke="black" stroke-width="1" points="39.1,250 45.1,250"/>
<polyline fill="none" stroke="black" stroke-width="1" points="550,250 544,250"/>
<text x="33.1" y="254.2" text-anchor="end">10<tspan dy="-0.45em" font-size="0.75em">-5</tspan></text>
<polyline fill="none" stroke="black" stroke-width="1" points="39.1,211 45.1,211"/>
<polyline fill="none" stroke="black" stroke-width="1" points="550,211 544,211"/>
<text x="33.1" y="215.2" text-anchor="end">10<tspan dy="-0.45em" font-size="0.75em">-4</tspan></text>
<polyline fill="none" stroke="black" stroke-width="1" points="39.1,172 45.1,172"/>
<polyline fill="none" stroke="black" stroke-width="1" points="550,172 544,172"/>
<text x="33.1" y="176.2" text-anchor="end">10<tspan dy="-0.45em" font-size="0.75em">-3</tspan></text>
<polyline fill="none" stroke="black" stroke-width="1" points="39.1,133 45.1,133"/>
<polyline fill="none" stroke="black" stroke-width="1" points="550,133 544,133"/>
<text x="33.1" y="137.2" text-anchor="end">10<tspan dy="-0.45em" font-size="0.75em">-2</tspan></text>
<polyline fill="none" stroke="black" stroke-width="1" points="39.1,94 45.1,94"/>
<polyline fill="none" stroke="black" stroke-width="1" points="550,94 544,94"/>
<text x="33.1" y="98.2" text-anchor="end">10<tspan dy="-0.45em" font-size="0.75em">-1</tspan></text>
<polyline fill="none" stroke="black" stroke-width="1" points="39.1,55 45.1,55"/>
<polyline fill="none" stroke="black" stroke-width="1" points="550,55 544,55"/>
<text x="33.1" y="59.2" text-anchor="end">10<tspan dy="-0.45em" font-size="0.75em">0</tspan></text>
<polyline fill="none" stroke="black" stroke-width="1" points="39.1,16 45.1,16"/>
<polyline fill="none" stroke="black" stroke-width="1" points="550,16 544,16"/>
<text x="33.1" y="20.2" text-anchor="end">10<tspan dy="-0.45em" font-size="0.75em">1</tspan></text>
<polyline fill="none" stroke="black" stroke-width="1" points="39.1,277.26 42.1,277.26"/>
<polyline fill="none" stroke="black" stroke-width="1" points="550,277.26 547,277.26"/>
<polyline fill="none" stroke="black" stroke-width="1" points="39.1,270.39 42.1,270.39"/>
<polyline fill="none" stroke="black" stroke-width="1" points="550,270.39 547,270.39"/>
<polyline fill="none" stroke="black" stroke-width="1" points="39.1,265.52 42.1,265.52"/>
<polyline fill="none" stroke="black" stroke-width="1" points="550,265.52 547,265.52"/>
<polyline fill="none" stroke="black" stroke-width="1" points="39.1,261.74 42.1,261.74"/>
<polyline fill="none" stroke="black" stroke-width="1" points="550,261.74 547,261.74"/>
<polyline fill="none" stroke="black" stroke-width="1" points="39.1,258.65 42.1,258.65"/>
<polyline fill="none" stroke="black" stroke-width="1" points="550,258.65 547,258.65"/>
<polyline fill="none" stroke="black" stroke-width="1" points="39.1,256.04 42.1,256.04"/>
<polyline fill="none" stroke="black" stroke-width="1" points="550,256.04 547,256.04"/>
<polyline fill="none" stroke="black" stroke-width="1" points="39.1,253.78 42.1,253.78"/>
<polyline fill="none" stroke="black" stroke-width="1" points="550,253.78 547,253.78"/>
<polyline fill="none" stroke="black" stroke-width="1" points="39.1,251.78 42.1,251.78"/>
<polyline fill="none" stroke="black" stroke-width="1" points="550,251.78 547,251.78"/>
<polyline fill="none" stroke="black" stroke-width="1" points="39.1,238.26 42.1,238.26"/>
<polyline fill="none" stroke="black" stroke-width="1" points="550,238.26 547,238.26"/>
<polyline fill="none" stroke="black" stroke-width="1" points="39.1,231.39 42.1,231.39"/>
<polyline fill="none" stroke="black" stroke-width="1" points="550,231.39 547,231.39"/>
<polyline fill="none" stroke="black" stroke-width="1" points="39.1,226.52 42.1,226.52"/>
<polyline fill="none" stroke="black" stroke-width="1" points="550,226.52 547,226.52"/>
<polyline fill="none" stroke="black" stroke-width="1" points="39.1,222.74 42.1,222.74"/>
<polyline fill="none" stroke="black" stroke-width="1" points="550,222.74 547,222.74"/>
<polyline fill="none" stroke="black" stroke-width="1" points="39.1,219.65 42.1,219.65"/>
<polyline fill="none" stroke="black" stroke-width="1" points="550,219.65 547,219.65"/>
<polyline fill="none" stroke="black" stroke-width="1" points="39.1,217.04 42.1,217.04"/>
<polyline fill="none" stroke="black" stroke-width="1" points="550,217.04 547,217.04"/>
<polyline fill="none" stroke="black" stroke-width="1" points="39.1,214.78 42.1,214.78"/>
<polyline fill="none" stroke="black" stroke-width="1" points="550,214.78 547,214.78"/>
<polyline fill="none" stroke="black" stroke-width="1" points="39.1,212.78 42.1,212.78"/>
<polyline fill="none" stroke="black" stroke-width="1" points="550,212.78 547,212.78"/>
<polyline fill="none" stroke="black" stroke-width="1" points="39.1,199.26 42.1,199.26"/>
<polyline fill="none" stroke="black" stroke-width="1" points="550,199.26 547,199.26"/>
<polyline fill="none" stroke="black" stroke-width="1" points="39.1,192.39 42.1,192.39"/>
<polyline fill="none" stroke="black" stroke-width="1" points="550,192.39 547,192.39"/>
<polyline fill="none" stroke="black" stroke-width="1" points="39.1,187.52 42.1,187.52"/>
<polyline fill="none" stroke="black" stroke-width="1" points="550,187.52 547,187.52"/>
<polyline fill="none" stroke="black" stroke-width="1" points="39.1,183.74 42.1,183.74"/>
<polyline fill="none" stroke="black" stroke-width="1" points="550,183.74 547,183.74"/>
<polyline fill="none" stroke="black" stroke-width="1" points="39.1,180.65 42.1,180.65"/>
<polyline fill="none" stroke="black" stroke-width="1" points="550,180.65 547,180.65"/>
<polyline fill="none" stroke="black" stroke-width="1" points="39.1,178.04 42.1,178.04"/>
<polyline fill="none" stroke="black" stroke-width="1" points="550,178.04 547,178.04"/>
<polyline fill="none" stroke="black" stroke-width="1" points="39.1,175.78 42.1,175.78"/>
<polyline fill="none" stroke="black" stroke-width="1" points="550,175.78 547,175.78"/>
<polyline fill="none" stroke="black" stroke-width="1" points="39.1,173.78 42.1,173.78"/>
<polyline fill="none" stroke="black" stroke-width="1" points="550,173.78 547,173.78"/>
<polyline fill="none" stroke="black" stroke-width="1" points="39.1,160.26 42.1,160.26"/>
<polyline fill="none" stroke="black" stroke-width="1" points="550,160.26 547,160.26"/>
<polyline fill="none" stroke="black" stroke-width="1" points="39.1,153.39 42.1,153.39"/>
<polyline fill="none" stroke="black" stroke-width="1" points="550,153.39 547,153.39"/>
<polyline fill="none" stroke="black" stroke-width="1" points="39.1,148.52 42.1,148.52"/>
<polyline fill="none" stroke="black" stroke-width="1" points="550,148.52 547,148.52"/>
<polyline fill="none" stroke="black" stroke-width="1" points="39.1,144.74 42.1,144.74"/>
<polyline fill="none" stroke="black" stroke-width="1" points="550,144.74 547,144.74"/>
<polyline fill="none" stroke="black" stroke-width="1" points="39.1,141.65 42.1,141.65"/>
<polyline fill="none" stroke="black" stroke-width="1" points="550,141.65 547,141.65"/>
<polyline fill="none" stroke="black" stroke-width="1" points="39.1,139.04 42.1,139.04"/>
<polyline fill="none" stroke="black" stroke-width="1" points="550,139.04 547,139.04"/>
<polyline fill="none" stroke="black" stroke-width="1" points="39.1,136.78 42.1,136.78"/>
<polyline fill="none" stroke="black" stroke-width="1" points="550,136.78 547,136.78"/>
<polyline fill="none" stroke="black" stroke-width="1" points="39.1,134.78 42.1,134.78"/>
<polyline fill="none" stroke="black" stroke-width="1" points="550,134.78 547,134.78"/>
<polyline fill="none" stroke="black" stroke-width="1" points="39.1,121.26 42.1,121.26"/>
<polyline fill="none" stroke="black" stroke-width="1" points="550,121.26 547,121.26"/>
<polyline fill="none" stroke="black" stroke-width="1" points="39.1,114.39 42.1,114.39"/>
<polyline fill="none" stroke="black" stroke-width="1" points="550,114.39 547,114.39"/>
<polyline fill="none" stroke="black" stroke-width="1" points="39.1,109.52 42.1,109.52"/>
<polyline fill="none" stroke="black" stroke-width="1" points="550,109.52 547,109.52"/>
<polyline fill="none" stroke="black" stroke-width="1" points="39.1,105.74 42.1,105.74"/>
<polyline fill="none" stroke="black" stroke-width="1" points="550,105.74 547,105.74"/>
<polyline fill="none" stroke="black" stroke-width="1" points="39.1,102.65 42.1,102.65"/>
<polyline fill="none" stroke="black" stroke-width="1" points="550,102.65 547,102.65"/>
<polyline fill="none" stroke="black" stroke-width="1" points="39.1,100.04 42.1,100.04"/>
<polyline fill="none" stroke="black" stroke-width="1" points="550,100.04 547,100.04"/>
<polyline fill="none" stroke="black" stroke-width="1" points="39.1,97.78 42.1,97.78"/>
<polyline fill="none" stroke="black" stroke-width="1" points="550,97.78 547,97.78"/>
<polyline fill="none" stroke="black" stroke-width="1" points="39.1,95.78 42.1,95.78"/>
<polyline fill="none" stroke="black" stroke-width="1" points="550,95.78 547,95.78"/>
<polyline fill="none" stroke="black" stroke-width="1" points="39.1,82.26 42.1,82.26"/>
<polyline fill="none" stroke="black" stroke-width="1" points="550,82.26 547,82.26"/>
<polyline fill="none" stroke="black" stroke-width="1" points="39.1,75.39 42.1,75.39"/>
<polyline fill="none" stroke="black" stroke-width="1" points="550,75.39 547,75.39"/>
<polyline fill="none" stroke="black" stroke-width="1" points="39.1,70.52 42.1,70.52"/>
<polyline fill="none" stroke="black" stroke-width="1" points="550,70.52 547,70.52"/>
<polyline fill="none" stroke="black" stroke-width="1" points="39.1,66.74 42.1,66.74"/>
<polyline fill="none" stroke="black" stroke-width="1" points="550,66.74 547,66.74"/>
<polyline fill="none" stroke="black" stroke-width="1" points="39.1,63.65 42.1,63.65"/>
<polyline fill="none" stroke="black" stroke-width="1" points="550,63.65 547,63.65"/>
<polyline fill="none" stroke="black" stroke-width="1" points="39.1,61.04 42.1,61.04"/>
<polyline fill="none" stroke="black" stroke-width="1" points="550,61.04 547,61.04"/>
<polyline fill="none" stroke="black" stroke-width="1" points="39.1,58.78 42.1,58.78"/>
<polyline fill="none" stroke="black" stroke-width="1" points="550,58.78 547,58.78"/>
<polyline fill="none" stroke="black" stroke-width="1" points="39.1,56.78 42.1,56.78"/>
<polyline fill="none" stroke="black" stroke-width="1" points="550,56.78 547,56.78"/>
<polyline fill="none" stroke="black" stroke-width="1" points="39.1,43.26 42.1,43.26"/>
<polyline fill="none" stroke="black" stroke-width="1" points="550,43.26 547,43.26"/>
<polyline fill="none" stroke="black" stroke-width="1" points="39.1,36.39 42.1,36.39"/>
<polyline fill="none" stroke="black" stroke-width="1" points="550,36.39 547,36.39"/>
<polyline fill="none" stroke="black" stroke-width="1" points="39.1,31.52 42.1,31.52"/>
<polyline fill="none" stroke="black" stroke-width="1" points="550,31.52 547,31.52"/>
<polyline fill="none" stroke="black" stroke-width="1" points="39.1,27.74 42.1,27.74"/>
<polyline fill="none" stroke="black" stroke-width="1" points="550,27.74 547,27.74"/>
<polyline fill="none" stroke="black" stroke-width="1" points="39.1,24.65 42.1,24.65"/>
<polyline fill="none" stroke="black" stroke-width="1" points="550,24.65 547,24.65"/>
<polyline fill="none" stroke="black" stroke-width="1" points="39.1,22.04 42.1,22.04"/>
<polyline fill="none" stroke="black" stroke-width="1" points="550,22.04 547,22.04"/>
<polyline fill="none" stroke="black" stroke-width="1" points="39.1,19.78 42.1,19.78"/>
<polyline fill="none" stroke="black" stroke-width="1" points="550,19.78 547,19.78"/>
<polyline fill="none" stroke="black" stroke-width="1" points="39.1,17.78 42.1,17.78"/>
<polyline fill="none" stroke="black" stroke-width="1" points="550,17.78 547,17.78"/>
</g>
<polyline fill="none" stroke="#9400d3" stroke-width="1" points="504,29.5 540,29.5"/>
<text x="498" y="33.7" text-anchor="end">continuity</text>
<polyline fill="none" stroke="#009e73" stroke-width="1" points="504,44.5 540,44.5"/>
<text x="498" y="48.7" text-anchor="end">energy</text>
</g>
</svg>
