<?xml version="1.0" encoding="UTF-8" standalone="no"?>
<svg xmlns="http://www.w3.org/2000/svg" width="480" height="320" viewBox="0 0 480 320" font-family="Arial,Helvetica,sans-serif" font-size="12" fill="#5d9cff" data-theme="vfd" data-frame="#5d9cff" data-grid-color="#15304a">
<defs><filter id="fs-glow" filterUnits="userSpaceOnUse" x="0" y="0" width="480" height="320"><feGaussianBlur stdDeviation="2" result="b"/><feMerge><feMergeNode in="b"/><feMergeNode in="SourceGraphic"/></feMerge></filter></defs>
<rect x="0" y="0" width="480" height="320" fill="#04070a" stroke="none" stroke-width="0"/>
<text x="240" y="22" text-anchor="middle">TIME PER STEP</text>
<g class="fs-pie">
<path fill="#3dffc6" stroke="#04070a" stroke-width="1" stroke-linejoin="miter" d="M298.71,139.68 295.26,128.33 290.75,117.37 285.23,106.87 278.75,96.94 271.35,87.67 263.12,79.14 254.11,71.42
244.42,64.59 234.13,58.7 223.33,53.81 212.11,49.96 200.58,47.18 188.84,45.51 177,44.95 177,95.17
184.11,95.51 191.15,96.51 198.07,98.18 204.8,100.49 211.28,103.42 217.45,106.95 223.27,111.05 228.67,115.68
233.61,120.8 238.05,126.37 241.94,132.32 245.25,138.62 247.95,145.2 250.02,152.01Z"/>
<path fill="#ffb000" stroke="#04070a" stroke-width="1" stroke-linejoin="miter" d="M51.88,160.13 51.46,172.23 52.21,184.31 54.12,196.26 57.17,207.98 61.34,219.34 66.58,230.26 72.85,240.61
80.09,250.32 88.22,259.28 97.18,267.41 106.89,274.65 117.24,280.92 128.16,286.16 139.52,290.33 151.24,293.38
163.19,295.29 175.27,296.04 187.37,295.62 199.37,294.04 211.16,291.31 222.64,287.46 233.69,282.52 244.21,276.54
254.11,269.58 263.3,261.69 271.68,252.96 279.18,243.45 285.73,233.27 291.27,222.51 295.75,211.27 299.12,199.64
301.36,187.74 302.44,175.69 302.36,163.58 301.11,151.54 298.71,139.68 250.02,152.01 251.47,159.13 252.22,166.35
252.27,173.61 251.62,180.85 250.27,187.98 248.25,194.96 245.56,201.71 242.24,208.17 238.31,214.27 233.81,219.97
228.78,225.21 223.27,229.95 217.33,234.13 211.01,237.71 204.38,240.68 197.5,242.99 190.42,244.62 183.22,245.57
175.96,245.82 168.71,245.37 161.54,244.23 154.51,242.4 147.69,239.9 141.15,236.75 134.93,232.99 129.11,228.65
123.73,223.77 118.85,218.39 114.51,212.57 110.75,206.35 107.6,199.81 105.1,192.99 103.27,185.96 102.13,178.79
101.68,171.54 101.93,164.28Z"/>
<path fill="#ff4040" stroke="#04070a" stroke-width="1" stroke-linejoin="miter" d="M117.24,60.08 107.54,65.91 98.41,72.59 89.91,80.07 82.12,88.28 75.1,97.16 68.91,106.64 63.59,116.63
59.2,127.07 55.77,137.85 53.32,148.91 51.88,160.13 101.93,164.28 102.79,157.54 104.26,150.91 106.32,144.44
108.96,138.18 112.14,132.18 115.86,126.5 120.07,121.17 124.74,116.24 129.84,111.76 135.33,107.75 141.15,104.25Z"/>
<path fill="#f5e663" stroke="#04070a" stroke-width="1" stroke-linejoin="miter" d="M177,44.95 166.63,45.38 156.34,46.66 146.18,48.79 136.23,51.75 126.57,55.52 117.24,60.08 141.15,104.25
146.74,101.51 152.54,99.25 158.51,97.48 164.6,96.2 170.78,95.43 177,95.17Z"/>
<path fill="#3dffc6" stroke="none" d="M434,48.7 470,48.7 470,40.3 434,40.3Z"/>
<text x="428" y="48.7" text-anchor="end">mesh 21%</text>
<path fill="#ffb000" stroke="none" d="M434,63.7 470,63.7 470,55.3 434,55.3Z"/>
<text x="428" y="63.7" text-anchor="end">fluxes 55%</text>
<path fill="#ff4040" stroke="none" d="M434,78.7 470,78.7 470,70.3 434,70.3Z"/>
<text x="428" y="78.7" text-anchor="end">comm 16%</text>
<path fill="#f5e663" stroke="none" d="M434,93.7 470,93.7 470,85.3 434,85.3Z"/>
<text x="428" y="93.7" text-anchor="end">io 8%</text>
</g>
</svg>
