<?xml version="1.0" encoding="UTF-8" standalone="no"?>
<svg xmlns="http://www.w3.org/2000/svg" width="560" height="320" viewBox="0 0 560 320" font-family="Arial,Helvetica,sans-serif" font-size="12">
<rect x="0" y="0" width="560" height="320" fill="white" stroke="none" stroke-width="0"/>
<g class="fs-axes" data-area="39.1 550 16 289" data-x="0 1.2e2" data-y="1e-6 1e1" data-log="0 1" data-grid="0" data-font-size="12">
<g class="fs-grid" display="none">
<polyline fill="none" stroke="#a0a0a0" stroke-width="0.5" stroke-dasharray="2,3" points="39.1,289 39.1,16"/>
<polyline fill="none" stroke="#a0a0a0" stroke-width="0.5" stroke-dasharray="2,3" points="81.68,289 81.68,16"/>
<polyline fill="none" stroke="#a0a0a0" stroke-width="0.5" stroke-dasharray="2,3" points="124.25,289 124.25,16"/>
<polyline fill="none" stroke="#a0a0a0" stroke-width="0.5" stroke-dasharray="2,3" points="166.83,289 166.83,16"/>
<polyline fill="none" stroke="#a0a0a0" stroke-width="0.5" stroke-dasharray="2,3" points="209.4,289 209.4,16"/>
<polyline fill="none" stroke="#a0a0a0" stroke-width="0.5" stroke-dasharray="2,3" points="251.98,289 251.98,16"/>
<polyline fill="none" stroke="#a0a0a0" stroke-width="0.5" stroke-dasharray="2,3" points="294.55,289 294.55,16"/>
<polyline fill="none" stroke="#a0a0a0" stroke-width="0.5" stroke-dasharray="2,3" points="337.13,289 337.13,16"/>
<polyline fill="none" stroke="#a0a0a0" stroke-width="0.5" stroke-dasharray="2,3" points="379.7,289 379.7,16"/>
<polyline fill="none" stroke="#a0a0a0" stroke-width="0.5" stroke-dasharray="2,3" points="422.28,289 422.28,16"/>
<polyline fill="none" stroke="#a0a0a0" stroke-width="0.5" stroke-dasharray="2,3" points="464.85,289 464.85,16"/>
<polyline fill="none" stroke="#a0a0a0" stroke-width="0.5" stroke-dasharray="2,3" points="507.43,289 507.43,16"/>
<polyline fill="none" stroke="#a0a0a0" stroke-width="0.5" stroke-dasharray="2,3" points="550,289 550,16"/>
<polyline fill="none" stroke="#a0a0a0" stroke-width="0.5" stroke-dasharray="2,3" points="39.1,289 550,289"/>
<polyline fill="none" stroke="#a0a0a0" stroke-width="0.5" stroke-dasharray="2,3" points="39.1,250 550,250"/>
<polyline fill="none" stroke="#a0a0a0" stroke-width="0.5" stroke-dasharray="2,3" points="39.1,211 550,211"/>
<polyline fill="none" stroke="#a0a0a0" stroke-width="0.5" stroke-dasharray="2,3" points="39.1,172 550,172"/>
<polyline fill="none" stroke="#a0a0a0" stroke-width="0.5" stroke-dasharray="2,3" points="39.1,133 550,133"/>
<polyline fill="none" stroke="#a0a0a0" stroke-width="0.5" stroke-dasharray="2,3" points="39.1,94 550,94"/>
<polyline fill="none" stroke="#a0a0a0" stroke-width="0.5" stroke-dasharray="2,3" points="39.1,55 550,55"/>
<polyline fill="none" stroke="#a0a0a0" stroke-width="0.5" stroke-dasharray="2,3" points="39.1,16 550,16"/>
</g>
<svg class="fs-plot" x="39.1" y="16" width="510.9" height="273" viewBox="0 0 1 1" preserveAspectRatio="none" overflow="hidden">
<polyline fill="none" stroke="#9400d3" stroke-width="1" stroke-linejoin="round" vector-effect="non-scaling-stroke" points="0.008333,0.142559 0.091667,0.22554 0.175,0.265016 0.258333,0.362182 0.341667,0.389582 0.425,0.496165"/>
<polyline fill="none" stroke="#9400d3" stroke-width="1" stroke-linejoin="round" vector-effect="non-scaling-stroke" points="0.508333,0.516442 0.591667,0.62583 0.675,0.645658 0.758333,0.750799 0.841667,0.777208 0.925,0.872262"/>
<path class="fs-pts" data-pt="6" data-size="9" data-lw="1" data-color="#9400d3" fill="none" stroke="none" d="M0.008333,0.142559 M0.091667,0.22554 M0.175,0.265016 M0.258333,0.362182 M0.341667,0.389582 M0.425,0.496165 M0.508333,0.516442 M0.591667,0.62583
M0.675,0.645658 M0.758333,0.750799 M0.841667,0.777208 M0.925,0.872262"/>
</svg>
<svg class="fs-marks" x="39.1" y="16" width="510.9" height="273" viewBox="0 0 510.9 273" overflow="hidden">
<path fill="none" stroke="#9400d3" stroke-width="1" d="M-0.24,38.92A4.5,4.5 0 1 0 8.76,38.92A4.5,4.5 0 1 0 -0.24,38.92ZM42.33,61.57A4.5,4.5 0 1 0 51.33,61.57A4.5,4.5 0 1 0 42.33,61.57ZM84.91,72.35A4.5,4.5 0 1 0 93.91,72.35A4.5,4.5 0 1 0 84.91,72.35ZM127.48,98.88A4.5,4.5 0 1 0 136.48,98.88A4.5,4.5 0 1 0 127.48,98.88ZM170.06,106.36A4.5,4.5 0 1 0 179.06,106.36A4.5,4.5 0 1 0 170.06,106.36ZM212.63,135.45A4.5,4.5 0 1 0 221.63,135.45A4.5,4.5 0 1 0 212.63,135.45ZM255.21,140.99A4.5,4.5 0 1 0 264.21,140.99A4.5,4.5 0 1 0 255.21,140.99ZM297.78,170.85A4.5,4.5 0 1 0 306.78,170.85A4.5,4.5 0 1 0 297.78,170.85ZM340.36,176.26A4.5,4.5 0 1 0 349.36,176.26A4.5,4.5 0 1 0 340.36,176.26ZM382.93,204.97A4.5,4.5 0 1 0 391.93,204.97A4.5,4.5 0 1 0 382.93,204.97ZM425.51,212.18A4.5,4.5 0 1 0 434.51,212.18A4.5,4.5 0 1 0 425.51,212.18ZM468.08,238.13A4.5,4.5 0 1 0 477.08,238.13A4.5,4.5 0 1 0 468.08,238.13Z"/>
</svg>
<rect x="39.1" y="16" width="510.9" height="273" fill="none" stroke="black" stroke-width="1"/>
<g class="fs-xticks">
<polyline fill="none" stroke="black" stroke-width="1" points="39.1,289 39.1,283"/>
<polyline fill="none" stroke="black" stroke-width="1" points="39.1,16 39.1,22"/>
<text x="39.1" y="307" text-anchor="middle">0</text>
<polyline fill="none" stroke="black" stroke-width="1" points="81.68,289 81.68,283"/>
<polyline fill="none" stroke="black" stroke-width="1" points="81.68,16 81.68,22"/>
<text x="81.68" y="307" text-anchor="middle">10</text>
<polyline fill="none" stroke="black" stroke-width="1" points="124.25,289 124.25,283"/>
<polyline fill="none" stroke="black" stroke-width="1" points="124.25,16 124.25,22"/>
<text x="124.25" y="307" text-anchor="middle">20</text>
<polyline fill="none" stroke="black" stroke-width="1" points="166.83,289 166.83,283"/>
<polyline fill="none" stroke="black" stroke-width="1" points="166.83,16 166.83,22"/>
<text x="166.83" y="307" text-anchor="middle">30</text>
<polyline fill="none" stroke="black" stroke-width="1" points="209.4,289 209.4,283"/>
<polyline fill="none" stroke="black" stroke-width="1" points="209.4,16 209.4,22"/>
<text x="209.4" y="307" text-anchor="middle">40</text>
<polyline fill="none" stroke="black" stroke-width="1" points="251.98,289 251.98,283"/>
<polyline fill="none" stroke="black" stroke-width="1" points="251.98,16 251.98,22"/>
<text x="251.98" y="307" text-anchor="middle">50</text>
<polyline fill="none" stroke="black" stroke-width="1" points="294.55,289 294.55,283"/>
<polyline fill="none" stroke="black" stroke-width="1" points="294.55,16 294.55,22"/>
<text x="294.55" y="307" text-anchor="middle">60</text>
<polyline fill="none" stroke="black" stroke-width="1" points="337.13,289 337.13,283"/>
<polyline fill="none" stroke="black" stroke-width="1" points="337.13,16 337.13,22"/>
<text x="337.13" y="307" text-anchor="middle">70</text>
<polyline fill="none" stroke="black" stroke-width="1" points="379.7,289 379.7,283"/>
<polyline fill="none" stroke="black" stroke-width="1" points="379.7,16 379.7,22"/>
<text x="379.7" y="307" text-anchor="middle">80</text>
<polyline fill="none" stroke="black" stroke-width="1" points="422.28,289 422.28,283"/>
<polyline fill="none" stroke="black" stroke-width="1" points="422.28,16 422.28,22"/>
<text x="422.28" y="307" text-anchor="middle">90</text>
<polyline fill="none" stroke="black" stroke-width="1" points="464.85,289 464.85,283"/>
<polyline fill="none" stroke="black" stroke-width="1" points="464.85,16 464.85,22"/>
<text x="464.85" y="307" text-anchor="middle">100</text>
<polyline fill="none" stroke="black" stroke-width="1" points="507.43,289 507.43,283"/>
<polyline fill="none" stroke="black" stroke-width="1" points="507.43,16 507.43,22"/>
<text x="507.43" y="307" text-anchor="middle">110</text>
<polyline fill="none" stroke="black" stroke-width="1" points="550,289 550,283"/>
<polyline fill="none" stroke="black" stroke-width="1" points="550,16 550,22"/>
<text x="550" y="307" text-anchor="middle">120</text>
</g>
<g class="fs-yticks">
<polyline fill="none" stroke="black" stroke-width="1" points="39.1,289 45.1,289"/>
<polyline fill="none" stroke="black" stroke-width="1" points="550,289 544,289"/>
<text x="33.1" y="293.2" text-anchor="end">10<tspan dy="-0.45em" font-size="0.75em">-6</tspan></text>
<polyline fill="none" stroke="black" stroke-width="1" points="39.1,250 45.1,250"/>
<polyline fill="none" stroke="black" stroke-width="1" points="550,250 544,250"/>
<text x="33.1" y="254.2" text-anchor="end">10<tspan dy="-0.45em" font-size="0.75em">-5</tspan></text>
<polyline fill="none" stroke="black" stroke-width="1" points="39.1,211 45.1,211"/>
<polyline fill="none" stroke="black" stroke-width="1" points="550,211 544,211"/>
<text x="33.1" y="215.2" text-anchor="end">10<tspan dy="-0.45em" font-size="0.75em">-4</tspan></text>
<polyline fill="none" stroke="black" stroke-width="1" points="39.1,172 45.1,172"/>
<polyline fill="none" stroke="black" stroke-width="1" points="550,172 544,172"/>
<text x="33.1" y="176.2" text-anchor="end">10<tspan dy="-0.45em" font-size="0.75em">-3</tspan></text>
<polyline fill="none" stroke="black" stroke-width="1" points="39.1,133 45.1,133"/>
<polyline fill="none" stroke="black" stroke-width="1" points="550,133 544,133"/>
<text x="33.1" y="137.2" text-anchor="end">10<tspan dy="-0.45em" font-size="0.75em">-2</tspan></text>
<polyline fill="none" stroke="black" stroke-width="1" points="39.1,94 45.1,94"/>
<polyline fill="none" stroke="black" stroke-width="1" points="550,94 544,94"/>
<text x="33.1" y="98.2" text-anchor="end">10<tspan dy="-0.45em" font-size="0.75em">-1</tspan></text>
<polyline fill="none" stroke="black" stroke-width="1" points="39.1,55 45.1,55"/>
<polyline fill="none" stroke="black" stroke-width="1" points="550,55 544,55"/>
<text x="33.1" y="59.2" text-anchor="end">10<tspan dy="-0.45em" font-size="0.75em">0</tspan></text>
<polyline fill="none" stroke="black" stroke-width="1" points="39.1,16 45.1,16"/>
<polyline fill="none" stroke="black" stroke-width="1" points="550,16 544,16"/>
<text x="33.1" y="20.2" text-anchor="end">10<tspan dy="-0.45em" font-size="0.75em">1</tspan></text>
<polyline fill="none" stroke="black" stroke-width="1" points="39.1,277.26 42.1,277.26"/>
<polyline fill="none" stroke="black" stroke-width="1" points="550,277.26 547,277.26"/>
<polyline fill="none" stroke="black" stroke-width="1" points="39.1,270.39 42.1,270.39"/>
<polyline fill="none" stroke="black" stroke-width="1" points="550,270.39 547,270.39"/>
<polyline fill="none" stroke="black" stroke-width="1" points="39.1,265.52 42.1,265.52"/>
<polyline fill="none" stroke="black" stroke-width="1" points="550,265.52 547,265.52"/>
<polyline fill="none" stroke="black" stroke-width="1" points="39.1,261.74 42.1,261.74"/>
<polyline fill="none" stroke="black" stroke-width="1" points="550,261.74 547,261.74"/>
<polyline fill="none" stroke="black" stroke-width="1" points="39.1,258.65 42.1,258.65"/>
<polyline fill="none" stroke="black" stroke-width="1" points="550,258.65 547,258.65"/>
<polyline fill="none" stroke="black" stroke-width="1" points="39.1,256.04 42.1,256.04"/>
<polyline fill="none" stroke="black" stroke-width="1" points="550,256.04 547,256.04"/>
<polyline fill="none" stroke="black" stroke-width="1" points="39.1,253.78 42.1,253.78"/>
<polyline fill="none" stroke="black" stroke-width="1" points="550,253.78 547,253.78"/>
<polyline fill="none" stroke="black" stroke-width="1" points="39.1,251.78 42.1,251.78"/>
<polyline fill="none" stroke="black" stroke-width="1" points="550,251.78 547,251.78"/>
<polyline fill="none" stroke="black" stroke-width="1" points="39.1,238.26 42.1,238.26"/>
<polyline fill="none" stroke="black" stroke-width="1" points="550,238.26 547,238.26"/>
<polyline fill="none" stroke="black" stroke-width="1" points="39.1,231.39 42.1,231.39"/>
<polyline fill="none" stroke="black" stroke-width="1" points="550,231.39 547,231.39"/>
<polyline fill="none" stroke="black" stroke-width="1" points="39.1,226.52 42.1,226.52"/>
<polyline fill="none" stroke="black" stroke-width="1" points="550,226.52 547,226.52"/>
<polyline fill="none" stroke="black" stroke-width="1" points="39.1,222.74 42.1,222.74"/>
<polyline fill="none" stroke="black" stroke-width="1" points="550,222.74 547,222.74"/>
<polyline fill="none" stroke="black" stroke-width="1" points="39.1,219.65 42.1,219.65"/>
<polyline fill="none" stroke="black" stroke-width="1" points="550,219.65 547,219.65"/>
<polyline fill="none" stroke="black" stroke-width="1" points="39.1,217.04 42.1,217.04"/>
<polyline fill="none" stroke="black" stroke-width="1" points="550,217.04 547,217.04"/>
<polyline fill="none" stroke="black" stroke-width="1" points="39.1,214.78 42.1,214.78"/>
<polyline fill="none" stroke="black" stroke-width="1" points="550,214.78 547,214.78"/>
<polyline fill="none" stroke="black" stroke-width="1" points="39.1,212.78 42.1,212.78"/>
<polyline fill="none" stroke="black" stroke-width="1" points="550,212.78 547,212.78"/>
<polyline fill="none" stroke="black" stroke-width="1" points="39.1,199.26 42.1,199.26"/>
<polyline fill="none" stroke="black" stroke-width="1" points="550,199.26 547,199.26"/>
<polyline fill="none" stroke="black" stroke-width="1" points="39.1,192.39 42.1,192.39"/>
<polyline fill="none" stroke="black" stroke-width="1" points="550,192.39 547,192.39"/>
<polyline fill="none" stroke="black" stroke-width="1" points="39.1,187.52 42.1,187.52"/>
<polyline fill="none" stroke="black" stroke-width="1" points="550,187.52 547,187.52"/>
<polyline fill="none" stroke="black" stroke-width="1" points="39.1,183.74 42.1,183.74"/>
<polyline fill="none" stroke="black" stroke-width="1" points="550,183.74 547,183.74"/>
<polyline fill="none" stroke="black" stroke-width="1" points="39.1,180.65 42.1,180.65"/>
<polyline fill="none" stroke="black" stroke-width="1" points="550,180.65 547,180.65"/>
<polyline fill="none" stroke="black" stroke-width="1" points="39.1,178.04 42.1,178.04"/>
<polyline fill="none" stroke="black" stroke-width="1" points="550,178.04 547,178.04"/>
<polyline fill="none" stroke="black" stroke-width="1" points="39.1,175.78 42.1,175.78"/>
<polyline fill="none" stroke="black" stroke-width="1" points="550,175.78 547,175.78"/>
<polyline fill="none" stroke="black" stroke-width="1" points="39.1,173.78 42.1,173.78"/>
<polyline fill="none" stroke="black" stroke-width="1" points="550,173.78 547,173.78"/>
<polyline fill="none" stroke="black" stroke-width="1" points="39.1,160.26 42.1,160.26"/>
<polyline fill="none" stroke="black" stroke-width="1" points="550,160.26 547,160.26"/>
<polyline fill="none" stroke="black" stroke-width="1" points="39.1,153.39 42.1,153.39"/>
<polyline fill="none" stroke="black" stroke-width="1" points="550,153.39 547,153.39"/>
<polyline fill="none" stroke="black" stroke-width="1" points="39.1,148.52 42.1,148.52"/>
<polyline fill="none" stroke="black" stroke-width="1" points="550,148.52 547,148.52"/>
<polyline fill="none" stroke="black" stroke-width="1" points="39.1,144.74 42.1,144.74"/>
<polyline fill="none" stroke="black" stroke-width="1" points="550,144.74 547,144.74"/>
<polyline fill="none" stroke="black" stroke-width="1" points="39.1,141.65 42.1,141.65"/>
<polyline fill="none" stroke="black" stroke-width="1" points="550,141.65 547,141.65"/>
<polyline fill="none" stroke="black" stroke-width="1" points="39.1,139.04 42.1,139.04"/>
<polyline fill="none" stroke="black" stroke-width="1" points="550,139.04 547,139.04"/>
<polyline fill="none" stroke="black" stroke-width="1" points="39.1,136.78 42.1,136.78"/>
<polyline fill="none" stroke="black" stroke-width="1" points="550,136.78 547,136.78"/>
<polyline fill="none" stroke="black" stroke-width="1" points="39.1,134.78 42.1,134.78"/>
<polyline fill="none" stroke="black" stroke-width="1" points="550,134.78 547,134.78"/>
<polyline fill="none" stroke="black" stroke-width="1" points="39.1,121.26 42.1,121.26"/>
<polyline fill="none" stroke="black" stroke-width="1" points="550,121.26 547,121.26"/>
<polyline fill="none" stroke="black" stroke-width="1" points="39.1,114.39 42.1,114.39"/>
<polyline fill="none" stroke="black" stroke-width="1" points="550,114.39 547,114.39"/>
<polyline fill="none" stroke="black" stroke-width="1" points="39.1,109.52 42.1,109.52"/>
<polyline fill="none" stroke="black" stroke-width="1" points="550,109.52 547,109.52"/>
<polyline fill="none" stroke="black" stroke-width="1" points="39.1,105.74 42.1,105.74"/>
<polyline fill="none" stroke="black" stroke-width="1" points="550,105.74 547,105.74"/>
<polyline fill="none" stroke="black" stroke-width="1" points="39.1,102.65 42.1,102.65"/>
<polyline fill="none" stroke="black" stroke-width="1" points="550,102.65 547,102.65"/>
<polyline fill="none" stroke="black" stroke-width="1" points="39.1,100.04 42.1,100.04"/>
<polyline fill="none" stroke="black" stroke-width="1" points="550,100.04 547,100.04"/>
<polyline fill="none" stroke="black" stroke-width="1" points="39.1,97.78 42.1,97.78"/>
<polyline fill="none" stroke="black" stroke-width="1" points="550,97.78 547,97.78"/>
<polyline fill="none" stroke="black" stroke-width="1" points="39.1,95.78 42.1,95.78"/>
<polyline fill="none" stroke="black" stroke-width="1" points="550,95.78 547,95.78"/>
<polyline fill="none" stroke="black" stroke-width="1" points="39.1,82.26 42.1,82.26"/>
<polyline fill="none" stroke="black" stroke-width="1" points="550,82.26 547,82.26"/>
<polyline fill="none" stroke="black" stroke-width="1" points="39.1,75.39 42.1,75.39"/>
<polyline fill="none" stroke="black" stroke-width="1" points="550,75.39 547,75.39"/>
<polyline fill="none" stroke="black" stroke-width="1" points="39.1,70.52 42.1,70.52"/>
<polyline fill="none" stroke="black" stroke-width="1" points="550,70.52 547,70.52"/>
<polyline fill="none" stroke="black" stroke-width="1" points="39.1,66.74 42.1,66.74"/>
<polyline fill="none" stroke="black" stroke-width="1" points="550,66.74 547,66.74"/>
<polyline fill="none" stroke="black" stroke-width="1" points="39.1,63.65 42.1,63.65"/>
<polyline fill="none" stroke="black" stroke-width="1" points="550,63.65 547,63.65"/>
<polyline fill="none" stroke="black" stroke-width="1" points="39.1,61.04 42.1,61.04"/>
<polyline fill="none" stroke="black" stroke-width="1" points="550,61.04 547,61.04"/>
<polyline fill="none" stroke="black" stroke-width="1" points="39.1,58.78 42.1,58.78"/>
<polyline fill="none" stroke="black" stroke-width="1" points="550,58.78 547,58.78"/>
<polyline fill="none" stroke="black" stroke-width="1" points="39.1,56.78 42.1,56.78"/>
<polyline fill="none" stroke="black" stroke-width="1" points="550,56.78 547,56.78"/>
<polyline fill="none" stroke="black" stroke-width="1" points="39.1,43.26 42.1,43.26"/>
<polyline fill="none" stroke="black" stroke-width="1" points="550,43.26 547,43.26"/>
<polyline fill="none" stroke="black" stroke-width="1" points="39.1,36.39 42.1,36.39"/>
<polyline fill="none" stroke="black" stroke-width="1" points="550,36.39 547,36.39"/>
<polyline fill="none" stroke="black" stroke-width="1" points="39.1,31.52 42.1,31.52"/>
<polyline fill="none" stroke="black" stroke-width="1" points="550,31.52 547,31.52"/>
<polyline fill="none" stroke="black" stroke-width="1" points="39.1,27.74 42.1,27.74"/>
<polyline fill="none" stroke="black" stroke-width="1" points="550,27.74 547,27.74"/>
<polyline fill="none" stroke="black" stroke-width="1" points="39.1,24.65 42.1,24.65"/>
<polyline fill="none" stroke="black" stroke-width="1" points="550,24.65 547,24.65"/>
<polyline fill="none" stroke="black" stroke-width="1" points="39.1,22.04 42.1,22.04"/>
<polyline fill="none" stroke="black" stroke-width="1" points="550,22.04 547,22.04"/>
<polyline fill="none" stroke="black" stroke-width="1" points="39.1,19.78 42.1,19.78"/>
<polyline fill="none" stroke="black" stroke-width="1" points="550,19.78 547,19.78"/>
<polyline fill="none" stroke="black" stroke-width="1" points="39.1,17.78 42.1,17.78"/>
<polyline fill="none" stroke="black" stroke-width="1" points="550,17.78 547,17.78"/>
</g>
<polyline fill="none" stroke="#9400d3" stroke-width="1" points="504,29.5 540,29.5"/>
<path fill="none" stroke="#9400d3" stroke-width="1" d="M517.5,29.5A4.5,4.5 0 1 0 526.5,29.5A4.5,4.5 0 1 0 517.5,29.5Z"/>
<text x="498" y="33.7" text-anchor="end">every 10th iteration</text>
</g>
</svg>
