<?xml version="1.0" encoding="UTF-8" standalone="no"?>
<svg xmlns="http://www.w3.org/2000/svg" width="480" height="320" viewBox="0 0 480 320" font-family="Arial,Helvetica,sans-serif" font-size="12">
<rect x="0" y="0" width="480" height="320" fill="white" stroke="none" stroke-width="0"/>
<g class="fs-radar">
<path fill="none" stroke="#a0a0a0" stroke-width="0.5" stroke-linejoin="miter" d="M200.1,106 251.46,143.31 231.84,203.69 168.36,203.69 148.74,143.31Z"/>
<text x="203.7" y="103.6">5</text>
<path fill="none" stroke="#a0a0a0" stroke-width="0.5" stroke-linejoin="miter" d="M200.1,52 302.81,126.63 263.58,247.37 136.62,247.37 97.39,126.63Z"/>
<text x="203.7" y="49.6">10</text>
<polyline fill="none" stroke="#a0a0a0" stroke-width="0.5" points="200.1,160 200.1,52"/>
<text x="200.1" y="36.76" text-anchor="middle">speed</text>
<polyline fill="none" stroke="#a0a0a0" stroke-width="0.5" points="200.1,160 302.81,126.63"/>
<text x="321.3" y="124.82">memory</text>
<polyline fill="none" stroke="#a0a0a0" stroke-width="0.5" points="200.1,160 263.58,247.37"/>
<text x="275.01" y="267.3">energy</text>
<polyline fill="none" stroke="#a0a0a0" stroke-width="0.5" points="200.1,160 136.62,247.37"/>
<text x="125.19" y="267.3" text-anchor="end   ">cost</text>
<polyline fill="none" stroke="#a0a0a0" stroke-width="0.5" points="200.1,160 97.39,126.63"/>
<text x="78.9" y="124.82" text-anchor="end   ">scaling</text>
<path fill="#9400d3" fill-opacity="0.3" stroke="#9400d3" stroke-width="1" stroke-linejoin="miter" d="M200.1,73.6 251.46,143.31 244.54,221.16 174.71,194.95 107.66,129.96Z"/>
<path fill="#009e73" fill-opacity="0.3" stroke="#009e73" stroke-width="1" stroke-linejoin="miter" d="M200.1,116.8 292.54,129.96 219.14,186.21 149.32,229.9 148.74,143.31Z"/>
<path fill="#9400d3" stroke="none" d="M434,27.7 470,27.7 470,19.3 434,19.3Z"/>
<text x="428" y="27.7" text-anchor="end">gpu</text>
<path fill="#009e73" stroke="none" d="M434,42.7 470,42.7 470,34.3 434,34.3Z"/>
<text x="428" y="42.7" text-anchor="end">cpu</text>
</g>
</svg>
