<?xml version="1.0" encoding="UTF-8" standalone="no"?>
<svg xmlns="http://www.w3.org/2000/svg" width="560" height="320" viewBox="0 0 560 320" font-family="Arial,Helvetica,sans-serif" font-size="12">
<rect x="0" y="0" width="560" height="320" fill="white" stroke="none" stroke-width="0"/>
<g class="fs-axes" data-area="35.8 550 16 289" data-x="0 5e0" data-y="3e0 5.5e0" data-log="0 0" data-grid="0" data-font-size="12">
<g class="fs-grid" display="none">
<polyline fill="none" stroke="#a0a0a0" stroke-width="0.5" stroke-dasharray="2,3" points="35.8,289 35.8,16"/>
<polyline fill="none" stroke="#a0a0a0" stroke-width="0.5" stroke-dasharray="2,3" points="87.22,289 87.22,16"/>
<polyline fill="none" stroke="#a0a0a0" stroke-width="0.5" stroke-dasharray="2,3" points="138.64,289 138.64,16"/>
<polyline fill="none" stroke="#a0a0a0" stroke-width="0.5" stroke-dasharray="2,3" points="190.06,289 190.06,16"/>
<polyline fill="none" stroke="#a0a0a0" stroke-width="0.5" stroke-dasharray="2,3" points="241.48,289 241.48,16"/>
<polyline fill="none" stroke="#a0a0a0" stroke-width="0.5" stroke-dasharray="2,3" points="292.9,289 292.9,16"/>
<polyline fill="none" stroke="#a0a0a0" stroke-width="0.5" stroke-dasharray="2,3" points="344.32,289 344.32,16"/>
<polyline fill="none" stroke="#a0a0a0" stroke-width="0.5" stroke-dasharray="2,3" points="395.74,289 395.74,16"/>
<polyline fill="none" stroke="#a0a0a0" stroke-width="0.5" stroke-dasharray="2,3" points="447.16,289 447.16,16"/>
<polyline fill="none" stroke="#a0a0a0" stroke-width="0.5" stroke-dasharray="2,3" points="498.58,289 498.58,16"/>
<polyline fill="none" stroke="#a0a0a0" stroke-width="0.5" stroke-dasharray="2,3" points="550,289 550,16"/>
<polyline fill="none" stroke="#a0a0a0" stroke-width="0.5" stroke-dasharray="2,3" points="35.8,289 550,289"/>
<polyline fill="none" stroke="#a0a0a0" stroke-width="0.5" stroke-dasharray="2,3" points="35.8,234.4 550,234.4"/>
<polyline fill="none" stroke="#a0a0a0" stroke-width="0.5" stroke-dasharray="2,3" points="35.8,179.8 550,179.8"/>
<polyline fill="none" stroke="#a0a0a0" stroke-width="0.5" stroke-dasharray="2,3" points="35.8,125.2 550,125.2"/>
<polyline fill="none" stroke="#a0a0a0" stroke-width="0.5" stroke-dasharray="2,3" points="35.8,70.6 550,70.6"/>
<polyline fill="none" stroke="#a0a0a0" stroke-width="0.5" stroke-dasharray="2,3" points="35.8,16 550,16"/>
</g>
<svg class="fs-plot" x="35.8" y="16" width="514.2" height="273" viewBox="0 0 1 1" preserveAspectRatio="none" overflow="hidden">
<g class="fs-series" data-series="1">
<polyline fill="none" stroke="#9400d3" stroke-width="1" stroke-linejoin="round" vector-effect="non-scaling-stroke" points="0,0.92 0.2,0.56 0.4,0.68 0.6,0.2 0.8,0.36 1,0.04"/>
<path class="fs-pts" data-pt="7" data-size="9" data-lw="1" data-color="#9400d3" fill="none" stroke="none" d="M0,0.92 M0.2,0.56 M0.4,0.68 M0.6,0.2 M0.8,0.36 M1,0.04"/>
</g>
</svg>
<svg class="fs-marks" x="35.8" y="16" width="514.2" height="273" viewBox="0 0 514.2 273" overflow="hidden">
<path data-series="1" fill="#9400d3" stroke="#9400d3" stroke-width="1" d="M-4.5,251.16A4.5,4.5 0 1 0 4.5,251.16A4.5,4.5 0 1 0 -4.5,251.16ZM98.34,152.88A4.5,4.5 0 1 0 107.34,152.88A4.5,4.5 0 1 0 98.34,152.88ZM201.18,185.64A4.5,4.5 0 1 0 210.18,185.64A4.5,4.5 0 1 0 201.18,185.64ZM304.02,54.6A4.5,4.5 0 1 0 313.02,54.6A4.5,4.5 0 1 0 304.02,54.6ZM406.86,98.28A4.5,4.5 0 1 0 415.86,98.28A4.5,4.5 0 1 0 406.86,98.28ZM509.7,10.92A4.5,4.5 0 1 0 518.7,10.92A4.5,4.5 0 1 0 509.7,10.92Z"/>
</svg>
<rect x="35.8" y="16" width="514.2" height="273" fill="none" stroke="black" stroke-width="1"/>
<g class="fs-xticks">
<polyline fill="none" stroke="black" stroke-width="1" points="35.8,289 35.8,283"/>
<polyline fill="none" stroke="black" stroke-width="1" points="35.8,16 35.8,22"/>
<text x="35.8" y="307" text-anchor="middle">0</text>
<polyline fill="none" stroke="black" stroke-width="1" points="87.22,289 87.22,283"/>
<polyline fill="none" stroke="black" stroke-width="1" points="87.22,16 87.22,22"/>
<text x="87.22" y="307" text-anchor="middle">0.5</text>
<polyline fill="none" stroke="black" stroke-width="1" points="138.64,289 138.64,283"/>
<polyline fill="none" stroke="black" stroke-width="1" points="138.64,16 138.64,22"/>
<text x="138.64" y="307" text-anchor="middle">1</text>
<polyline fill="none" stroke="black" stroke-width="1" points="190.06,289 190.06,283"/>
<polyline fill="none" stroke="black" stroke-width="1" points="190.06,16 190.06,22"/>
<text x="190.06" y="307" text-anchor="middle">1.5</text>
<polyline fill="none" stroke="black" stroke-width="1" points="241.48,289 241.48,283"/>
<polyline fill="none" stroke="black" stroke-width="1" points="241.48,16 241.48,22"/>
<text x="241.48" y="307" text-anchor="middle">2</text>
<polyline fill="none" stroke="black" stroke-width="1" points="292.9,289 292.9,283"/>
<polyline fill="none" stroke="black" stroke-width="1" points="292.9,16 292.9,22"/>
<text x="292.9" y="307" text-anchor="middle">2.5</text>
<polyline fill="none" stroke="black" stroke-width="1" points="344.32,289 344.32,283"/>
<polyline fill="none" stroke="black" stroke-width="1" points="344.32,16 344.32,22"/>
<text x="344.32" y="307" text-anchor="middle">3</text>
<polyline fill="none" stroke="black" stroke-width="1" points="395.74,289 395.74,283"/>
<polyline fill="none" stroke="black" stroke-width="1" points="395.74,16 395.74,22"/>
<text x="395.74" y="307" text-anchor="middle">3.5</text>
<polyline fill="none" stroke="black" stroke-width="1" points="447.16,289 447.16,283"/>
<polyline fill="none" stroke="black" stroke-width="1" points="447.16,16 447.16,22"/>
<text x="447.16" y="307" text-anchor="middle">4</text>
<polyline fill="none" stroke="black" stroke-width="1" points="498.58,289 498.58,283"/>
<polyline fill="none" stroke="black" stroke-width="1" points="498.58,16 498.58,22"/>
<text x="498.58" y="307" text-anchor="middle">4.5</text>
<polyline fill="none" stroke="black" stroke-width="1" points="550,289 550,283"/>
<polyline fill="none" stroke="black" stroke-width="1" points="550,16 550,22"/>
<text x="550" y="307" text-anchor="middle">5</text>
</g>
<g class="fs-yticks">
<polyline fill="none" stroke="black" stroke-width="1" points="35.8,289 41.8,289"/>
<polyline fill="none" stroke="black" stroke-width="1" points="550,289 544,289"/>
<text x="29.8" y="293.2" text-anchor="end">3</text>
<polyline fill="none" stroke="black" stroke-width="1" points="35.8,234.4 41.8,234.4"/>
<polyline fill="none" stroke="black" stroke-width="1" points="550,234.4 544,234.4"/>
<text x="29.8" y="238.6" text-anchor="end">3.5</text>
<polyline fill="none" stroke="black" stroke-width="1" points="35.8,179.8 41.8,179.8"/>
<polyline fill="none" stroke="black" stroke-width="1" points="550,179.8 544,179.8"/>
<text x="29.8" y="184" text-anchor="end">4</text>
<polyline fill="none" stroke="black" stroke-width="1" points="35.8,125.2 41.8,125.2"/>
<polyline fill="none" stroke="black" stroke-width="1" points="550,125.2 544,125.2"/>
<text x="29.8" y="129.4" text-anchor="end">4.5</text>
<polyline fill="none" stroke="black" stroke-width="1" points="35.8,70.6 41.8,70.6"/>
<polyline fill="none" stroke="black" stroke-width="1" points="550,70.6 544,70.6"/>
<text x="29.8" y="74.8" text-anchor="end">5</text>
<polyline fill="none" stroke="black" stroke-width="1" points="35.8,16 41.8,16"/>
<polyline fill="none" stroke="black" stroke-width="1" points="550,16 544,16"/>
<text x="29.8" y="20.2" text-anchor="end">5.5</text>
</g>
<g class="fs-key-entry" data-series="1">
<polyline fill="none" stroke="#9400d3" stroke-width="1" points="504,29.5 540,29.5"/>
<path fill="#9400d3" stroke="#9400d3" stroke-width="1" d="M517.5,29.5A4.5,4.5 0 1 0 526.5,29.5A4.5,4.5 0 1 0 517.5,29.5Z"/>
<text x="498" y="33.7" text-anchor="end">'single.dat'</text>
</g>
</g>
</svg>
